# xmcd
#
# Track frame offsets: 
#        150
#        12051
#        34749
#        53870
#        63558
#        84302
#        100622
#        117448
#        131976
#        145323
#        162845
#
# Disc length: 2418 seconds
#
# Revision: 0
# Processed by: cddbd v1.5.2PL0 Copyright (c) Steve Scherf et al.
# Submitted via: ExactAudioCopy v0.99pb4
#
DISCID=9009700b
DTITLE=Kathryn Rapier - Soul's Eye
DYEAR=2002
DGENRE=Contemporary Christian
TTITLE0=Into the Promise
TTITLE1=Soul's Eye
TTITLE2=I to the World
TTITLE3=Nature Sings
TTITLE4=Coram Deo
TTITLE5=Psalm 25
TTITLE6=Psalm 116
TTITLE7=Vine Song
TTITLE8=Hosea
TTITLE9=Sacrifice
TTITLE10=Jesus, Lover of My Soul
EXTD=
EXTT0=
EXTT1=
EXTT2=
EXTT3=
EXTT4=
EXTT5=
EXTT6=
EXTT7=
EXTT8=
EXTT9=
EXTT10=
PLAYORDER=
